<?xml version="1.0" standalone="no"?>
<!DOCTYPE svg PUBLIC "-//W3C//DTD SVG 20010904//EN"
 "http://www.w3.org/TR/2001/REC-SVG-20010904/DTD/svg10.dtd">
<svg version="1.0" xmlns="http://www.w3.org/2000/svg"
 width="512.000000pt" height="512.000000pt" viewBox="0 0 512.000000 512.000000"
 preserveAspectRatio="xMidYMid meet">

<g transform="translate(0.000000,512.000000) scale(0.100000,-0.100000)"
fill="#000000" stroke="none">
<path d="M1377 4464 c-209 -38 -389 -134 -548 -294 -321 -324 -431 -811 -284
-1257 58 -175 140 -314 263 -446 225 -241 1745 -1817 1752 -1817 17 0 1781
1843 1839 1920 272 365 316 880 111 1291 -236 472 -714 707 -1192 585 -216
-56 -331 -131 -575 -379 l-182 -184 -203 201 c-162 160 -220 211 -286 250
-210 125 -463 172 -695 130z"/>
</g>
</svg>
